# xmcd CD database file
#
# Track frame offsets:
#	150
#	24987
#	47775
#	67142
#	87112
#	110240
#	138657
#	160287
#	179290
#	205270
#	228725
#
# Disc length: 3392 seconds
#
# Revision: 0
# Processed by: cddbd v1.5.2PL0 Copyright (c) Steve Scherf et al.
# Submitted via: CDex 1.70beta2
#
DISCID=a00d3e0b
DTITLE=Various Artist - Sunset Jazz
DYEAR=1999
DGENRE=Jazz
TTITLE0=Our Way
TTITLE1=Just Because
TTITLE2=Reunion
TTITLE3=I could Never Lie
TTITLE4=Every Monday
TTITLE5=L, A. Daydream
TTITLE6=Glad To Be Here
TTITLE7=Night Cap
TTITLE8=When We Kiss
TTITLE9=Shadow Dance
TTITLE10=Time Has A Way
EXTD=YEAR: 1999
EXTT0=
EXTT1=
EXTT2=
EXTT3=
EXTT4=
EXTT5=
EXTT6=
EXTT7=
EXTT8=
EXTT9=
EXTT10=
PLAYORDER=
